<?xml version="1.0" standalone="no"?>
<!DOCTYPE svg PUBLIC "-//W3C//DTD SVG 1.1//EN" "http://www.w3.org/Graphics/SVG/1.1/DTD/svg11.dtd" >
<svg xmlns="http://www.w3.org/2000/svg">
<metadata>Generated by IcoMoon</metadata>
<defs>
<font id="order_form" horiz-adv-x="1024">
<font-face units-per-em="1024" ascent="960" descent="-64" />
<missing-glyph horiz-adv-x="1024" />
<glyph unicode="&#x20;" horiz-adv-x="512" d="" />
<glyph unicode="&#xe905;" glyph-name="mobile_device" horiz-adv-x="683" d="M90.218 936.978c-32.34-3.932-56.504-29.907-60.337-61.5v-864.426c0-12.758 3.32-23.506 8.806-33.204 12.623-22.456 31.243-33.84 57.016-33.84h506.229c25.831 0 44.627 11.383 57.089 33.84 5.646 10.171 9.303 21.082 9.303 33.204v864.426c-3.818 31.593-29.591 57.568-60.849 59.83l-517.257 1.671zM593.024 810.895v-708.773c0-4.168-0.798-5.965-2.676-5.965h-477.37c-1.85 0-2.648 1.798-2.648 5.965v714.738h482.694v-5.965z" />
<glyph unicode="&#xe906;" glyph-name="arrow_up" horiz-adv-x="1536" d="M847.93 829.182l651.046-657.382c41.4-41.907 41.4-109.722 0-151.501-41.4-41.702-108.558-41.702-149.933 0l-576.079 581.683-575.978-581.581c-41.4-41.805-108.533-41.805-149.933 0-41.502 41.779-41.502 109.594 0 151.398l651.046 657.382c20.687 20.915 47.738 31.309 74.865 31.309s54.381-10.394 74.967-31.309v0z" />
<glyph unicode="&#xe907;" glyph-name="arrow_right" horiz-adv-x="597" d="M576.461 395.174l-438.255-438.272c-27.938-27.87-73.148-27.87-101.001 0-27.802 27.87-27.802 73.079 0 100.932l387.789 387.806-387.721 387.738c-27.87 27.87-27.87 73.062 0 100.932 27.853 27.938 73.062 27.938 100.932 0l438.255-438.272c13.943-13.926 20.873-32.137 20.873-50.398s-6.929-36.608-20.873-50.466v0z" />
<glyph unicode="&#xe908;" glyph-name="arrow_left" horiz-adv-x="597" d="M20.873 500.826l438.255 438.272c27.938 27.87 73.148 27.87 101.001 0 27.802-27.87 27.802-73.079 0-100.932l-387.789-387.806 387.721-387.738c27.87-27.87 27.87-73.062 0-100.932-27.853-27.938-73.062-27.938-100.932 0l-438.255 438.272c-13.943 13.926-20.873 32.137-20.873 50.398s6.929 36.608 20.873 50.466v0z" />
<glyph unicode="&#xe90a;" horiz-adv-x="1092" d="M966.429 121.286c28.588 49.749 28.765 109.043 0.364 158.601l-285.075 497.856c-28.221 50.116-79.192 79.857-136.356 79.857s-108.132-29.92-136.347-79.669l-285.448-498.411c-28.401-50.116-28.224-109.777 0.542-159.524 28.401-49.193 79.192-78.756 135.992-78.756h569.43c56.987 0 108.134 29.929 136.897 80.045v0z" />
<glyph unicode="&#xe90b;" horiz-adv-x="1092" d="M545.182 283.38c-24.765 0-45.511-20.93-45.511-45.894s20.746-45.894 45.511-45.894c23.841 0 45.511 20.93 44.419 44.792 1.092 26.253-19.486 46.995-44.419 46.995v0z" />
<glyph unicode="&#xe90c;" horiz-adv-x="1092" d="M966.426 120.735c28.588 49.749 28.765 109.043 0.364 158.601l-285.075 497.856c-28.221 50.116-79.192 79.857-136.356 79.857s-108.132-29.92-136.347-79.669l-285.448-498.411c-28.401-50.116-28.224-109.777 0.542-159.524 28.401-49.193 79.192-78.756 135.992-78.756h569.43c56.987 0 108.134 29.929 136.897 80.045v0zM904.533 156.716c-15.84-27.536-43.875-43.877-75.182-43.877h-569.44c-30.943 0-58.8 15.973-74.267 42.952-15.663 27.357-15.84 60.031-0.187 87.567l285.448 498.223c15.476 27.357 43.138 43.509 74.454 43.509 31.13 0 58.987-16.34 74.454-43.688l285.27-498.225c15.289-26.8 15.103-59.113-0.551-86.461v0z" />
<glyph unicode="&#xe90d;" horiz-adv-x="1092" d="M966.426 120.735c28.588 49.749 28.765 109.043 0.364 158.601l-285.075 497.856c-28.221 50.116-79.192 79.857-136.356 79.857s-108.132-29.92-136.347-79.669l-285.448-498.411c-28.401-50.116-28.224-109.777 0.542-159.524 28.401-49.193 79.192-78.756 135.992-78.756h569.43c56.987 0 108.134 29.929 136.897 80.045v0zM904.533 156.716c-15.84-27.536-43.875-43.877-75.182-43.877h-569.44c-30.943 0-58.8 15.973-74.267 42.952-15.663 27.357-15.84 60.031-0.187 87.567l285.448 498.223c15.476 27.357 43.138 43.509 74.454 43.509 31.13 0 58.987-16.34 74.454-43.688l285.27-498.225c15.289-26.8 15.103-59.113-0.551-86.461v0z" />
<glyph unicode="&#xe90e;" horiz-adv-x="1092" d="M498.756 555.435c1.092-14.505 2-29.186 3.092-43.688 3.092-55.254 6.196-109.41 9.289-164.661 1.095-18.725 15.476-32.314 34.045-32.314s33.13 14.502 34.035 33.406c0 11.384 0 21.855 1.095 33.417 1.998 35.423 4.185 70.857 6.194 106.289 1.085 22.947 3.095 45.894 4.187 68.84 0 8.256-1.092 15.606-4.187 22.947-9.289 20.553-30.95 31.024-52.613 25.877-21.661-6.237-35.137-26.065-35.137-50.113z" />
<glyph unicode="&#xe910;" horiz-adv-x="1182" d="M1090.311 36.405c36.075 62.402 36.299 136.778 0.459 198.941l-359.734 624.485c-35.612 62.863-99.931 100.169-172.066 100.169s-136.451-37.531-172.055-99.933l-360.205-625.182c-35.839-62.863-35.615-137.699 0.683-200.099 35.839-61.706 99.931-98.787 171.607-98.787h718.56c71.911 0 136.454 37.542 172.75 100.405v0z" />
<glyph unicode="&#xe911;" horiz-adv-x="1182" d="M552.304 172.308c-43.363 0-79.689-35.923-79.689-78.769s36.326-78.769 79.689-78.769c41.745 0 79.689 35.923 77.777 76.879 1.913 45.060-34.119 80.66-77.777 80.66v0z" />
<glyph unicode="&#xe912;" horiz-adv-x="1182" d="M532.824 800.011c-37.117-11.774-60.209-49.206-60.209-94.605 1.872-27.382 3.427-55.098 5.299-82.476 5.299-104.309 10.618-206.547 15.917-310.851 1.876-35.349 26.519-61.002 58.337-61.002s56.77 27.378 58.321 63.064c0 21.491 0 41.257 1.876 63.086 3.424 66.872 7.171 133.766 10.614 200.655 1.86 43.319 5.303 86.639 7.175 129.958 0 15.586-1.872 29.461-7.175 43.319-15.917 38.801-53.034 58.568-90.155 48.851v0z" />
<glyph unicode="&#xe913;" glyph-name="box" horiz-adv-x="1894" d="M1015.249 80.984c-121.559 0-220.092 96.739-220.092 216.064 0 119.337 98.533 216.070 220.092 216.070 121.553 0 220.104-96.733 220.104-216.070 0-119.325-98.551-216.064-220.104-216.064v0zM366.944 80.984c-121.559 0-220.098 96.739-220.098 216.064 0 119.337 98.539 216.070 220.098 216.070s220.098-96.733 220.098-216.070c0-119.325-98.539-216.064-220.098-216.064v0zM1015.249 657.273c-140.497 0-262.5-77.547-324.152-191.394-61.652 113.846-183.655 191.394-324.152 191.394-82.58 0-158.782-26.795-220.098-71.992v303.416h-0.036c-0.851 39.106-33.35 70.568-73.39 70.568-40.046 0-72.539-31.462-73.384-70.568h-0.036v-597.616h0.15c3.261-196.173 166.174-354.251 366.794-354.251 140.497 0 262.5 77.559 324.152 191.406 61.652-113.846 183.655-191.406 324.152-191.406 202.659 0 366.944 161.28 366.944 360.218 0 198.944-164.285 360.224-366.944 360.224v0zM1875.804 50.188l-187.923 246.596 187.887 246.619c23.242 31.768 16.51 76.082-15.515 99.693-32.013 23.605-77.245 17.608-101.842-13.159l-0.024 0.012-162.199-212.839-162.217 212.81c-24.609 30.779-69.835 36.776-101.854 13.165s-38.757-67.925-15.497-99.687l-0.036-0.018 187.917-246.596-187.881-246.613c-23.26-31.768-16.522-76.076 15.497-99.687s77.245-17.614 101.854 13.165l0.030-0.029 162.187 212.839 162.223-212.827c24.597-30.767 69.829-36.764 101.842-13.165 32.025 23.611 38.757 67.925 15.515 99.699l0.036 0.024z" />
<glyph unicode="&#xe914;" glyph-name="dropbox" horiz-adv-x="1170" d="M949.329 570.256l-350.029 209.872 220.761 179.872 350.224-212.192-220.956-177.552zM817.721 173.568l336.116 193.68-202.151 168.384-329.143-196 195.178-166.064zM547.807 339.632l-329.143 196-202.151-168.384 336.181-193.68 195.113 166.064zM235.114 201.184v-62.24l335.937-202.944v385.184l-223.118-179.936-112.819 59.936zM935.172 201.184l-112.754-59.936-223.118 179.936v-385.184l335.872 202.944v62.24zM571.051 780.128l-220.761 179.872-350.289-212.192 221.021-177.552 350.029 209.872z" />
<glyph unicode="&#xe915;" glyph-name="google" horiz-adv-x="1142" d="M753.157 308.812h353.487c3.347 0 6.418 1.816 8.103 4.741 1.662 2.925 1.68 6.537 0.014 9.463l-358.824 632.225c-1.662 2.944-4.77 4.76-8.117 4.76h-353.487c-3.347 0-6.436-1.797-8.098-4.741-1.685-2.93-1.685-6.537-0.019-9.463l358.824-632.225c1.666-2.944 4.775-4.76 8.117-4.76v0zM537.524 560.256l-182.080 316.094c-1.685 2.906-4.756 4.684-8.084 4.684h-0.075c-3.342-0.019-6.436-1.849-8.079-4.812l-337.998-605.668c-1.61-2.887-1.61-6.428 0-9.335l176.744-316.075c1.662-2.963 4.751-4.793 8.117-4.812h0.037c3.347 0 6.455 1.811 8.117 4.76l343.339 605.663c1.662 2.944 1.643 6.575-0.037 9.5v0zM1132.792 275.385h-681.318c-3.38 0-6.492-1.849-8.154-4.812l-176.996-316.075c-1.629-2.944-1.61-6.537 0.070-9.463 1.666-2.906 4.756-4.703 8.084-4.703h681.318c3.361 0 6.469 1.83 8.136 4.812l177.015 316.075c1.629 2.925 1.61 6.537-0.070 9.444-1.666 2.93-4.756 4.722-8.084 4.722v0z" />
<glyph unicode="&#xe917;" glyph-name="device" horiz-adv-x="1195" d="M1124.662 958.22v1.78h-1060.662v-1.78c-34.304-2.41-59.935-30.090-64-63.756v-707.82c0-13.596 3.522-25.049 9.34-35.383 13.39-23.93 33.14-36.061 60.478-36.061h382.852v-98.036h-72.735c-18.060 0-31.992-14.273-31.992-32.484 0-18.274 13.933-32.563 31.992-32.563h428.792c17.998 0 32.551 14.289 32.551 32.563 0 18.211-14.553 32.484-32.551 32.484h-72.72v98.036h382.774c27.4 0 47.337 12.13 60.556 36.061 5.989 10.839 9.868 22.465 9.868 35.383v707.82c-4.049 33.666-31.387 61.345-64.543 63.756v0zM1066.667 827.056v-587.445c0-3.454-1.552-4.944-5.204-4.944h-928.314c-3.597 0-5.149 1.49-5.149 4.944v592.389h938.667v-4.944z" />
<glyph unicode="&#xe918;" glyph-name="lock" horiz-adv-x="808" d="M749.285 547.117h-20.453v93.242c0 172.442-140.452 316.503-316.001 319.58-4.789 0.081-14.379 0.081-19.168 0-175.557-3.077-316.001-147.138-316.001-319.58v-93.242h-20.453c-31.504 0-57.209-31.681-57.209-70.808v-467.642c0-39.077 25.705-71.055 57.209-71.055h692.076c31.504 0 57.209 31.978 57.209 71.055v467.642c0 39.127-25.705 70.808-57.209 70.808v0zM468.084 242.966v-141.304c0-16.184-13.905-29.867-30.526-29.867h-68.621c-16.621 0-30.526 13.682-30.526 29.867v141.304c-16.115 15.465-25.506 36.84-25.506 60.482 0 44.809 35.549 83.322 80.759 85.097 4.789 0.194 14.379 0.194 19.168 0 45.212-1.775 80.759-40.288 80.759-85.097 0-23.641-9.388-45.017-25.506-60.482v0zM594.074 547.117h-381.653v93.242c0 102.718 85.674 187.662 190.822 187.662 105.146 0 190.83-84.945 190.83-187.662v-93.242z" />
<glyph unicode="&#xe919;" glyph-name="upload" horiz-adv-x="1536" d="M813.193 960c-170.662 0-317.625-90.444-385.587-221.235-22.748 7.727-47.407 11.738-72.683 11.738-117.578 0-212.701-86.154-212.701-192.611 0-23.186 4.429-45.517 12.962-66.117-92.606-48.941-155.184-140.236-155.184-244.418 0-151.122 131.156-290.493 295.817-298.796h354.614v301.662h-152.347c-30.973 0-46.775 33.761-25.276 53.803l269.905 251.573c13.906 12.872 36.666 12.872 50.248 0l269.905-251.573c21.495-20.041 6.005-53.803-25.276-53.803h-152.347v-302.234h315.108c187.421 12.017 335.647 161.129 335.647 333.423 0.308 161.129-128.952 303.658-298.674 329.989-20.539 195.477-202.575 348.599-424.133 348.599z" />
<glyph unicode="&#xe91b;" glyph-name="medicine" horiz-adv-x="1323" d="M1277.286 499.603c-54.997-246.475-530.675-544.864-551.033-557.579-6.368-4.111-13.122-5.928-20.745-5.928-7.14 0-14.28 1.817-20.648 5.928-5.307 3.346-139.519 87.002-275.179 202.4-16.21 13.863-18.043 37.765-4.535 53.827 13.991 16.062 38.498 17.878 54.708 4.494 100.925-85.951 203.49-154.979 246.040-182.992 142.896 92.261 458.31 327.167 496.808 500.024 10.131 30.594 14.666 58.607 14.666 86.62 0 98.284-53.839 189.015-140.967 236.436-111.152 61.284-259.645 32.889-341.079-63.865-14.666-17.496-44.48-17.496-59.532 0-81.434 97.137-229.927 124.767-341.079 64.248-87.127-47.803-140.967-138.152-140.967-236.436 0-28.013 4.535-56.026 13.508-82.891 5.693-25.336 16.596-50.002 30.586-75.816h225.392l77.286 176.299c6.754 14.915 22.578 24.667 38.788 22.754 16.596-1.434 30.49-13.098 34.253-29.064l56.927-238.73 73.523 119.509c7.14 11.664 19.587 18.739 33.191 18.739h139.809c21.131 0 38.402-17.209 38.402-38.53 0-20.842-17.271-38.052-38.402-38.052h-118.389l-110.766-180.793c-7.14-11.568-19.587-18.261-32.805-18.261-2.219 0-4.149 0-5.982 0.382-15.92 2.199-27.885 13.767-31.744 28.778l-52.006 217.314-41.007-93.695c-6.465-14.245-19.973-23.232-35.507-23.232h-450.398c-21.034 0-38.402 17.209-38.402 38.53 0 20.842 17.368 38.052 38.402 38.052h113.468c-8.298 19.026-14.666 37.765-18.815 55.261-10.517 31.072-16.596 66.925-16.596 103.447 0 125.914 69.374 242.363 181.298 303.265 129.678 70.94 301.134 48.568 408.137-51.15 106.714 99.718 278.17 122.090 407.848 51.15 111.924-60.902 181.298-177.351 181.298-303.265 0-36.522-6.079-72.757-17.753-107.175z" />
<glyph unicode="&#xe91c;" glyph-name="legal" horiz-adv-x="953" d="M294.438 475.499l-49.069 34.311c-2.431-0.625-4.901-1.164-7.398-1.605-24.866-4.385-49.949 1.165-70.625 15.626l-46.722 32.67c-42.689 29.85-53.088 88.831-23.188 131.475l151.967 216.734c14.487 20.661 36.159 34.455 61.025 38.84s49.945-1.167 70.624-15.627l46.724-32.671c23.556-16.47 37.28-41.815 39.823-68.387l297.478-208.011c2.43 0.63 4.901 1.164 7.398 1.605 24.866 4.385 49.949-1.165 70.629-15.62l46.722-32.671c42.689-29.85 53.084-88.837 23.183-131.48l-151.967-216.734c-14.482-20.656-36.155-34.45-61.021-38.834s-49.949 1.165-70.628 15.621l-46.723 32.67c-20.68 14.461-34.477 36.102-38.855 60.935-0.44 2.494-0.781 4.997-1.019 7.492l-49.070 34.312-246.423-351.447c-14.488-20.661-36.161-34.454-61.027-38.839s-49.948 1.165-70.624 15.625l-44.455 31.086c-42.689 29.85-53.088 88.83-23.183 131.475l246.423 351.447z" />
<glyph unicode="&#xe91d;" glyph-name="art" horiz-adv-x="636" d="M553.765 905.481c-12.705 6.623-27.631 7.198-44.412 1.746-68.068-22.117-169.53-148.7-252.452-315-24.976-50.073-46.198-100.095-63.61-149.008l-0.303 0.158-10.334-30.489 0.183-0.095c-20.664-63.732-31.883-119.045-32.84-161.702-4.122-0.775-8.096-1.668-11.892-2.902-58.844-19.12-90.882-83.352-71.44-143.188 0.931-2.866 1.997-5.65 3.151-8.417 6.698-23.684-11.734-45.465-32.92-67.51-12.834-13.355-23.942-24.891-16.707-38.96 7.755-15.105 27.023-13.822 69.113-7.329 24.189 3.755 46.734 8.988 67.036 15.585 76.544 24.871 100.702 61.674 105.406 70.167 23.298 29.903 30.17 69.297 18.314 105.787-1.523 4.687-3.489 9.296-5.817 13.978 32.871 25.894 69.58 67.337 107.339 121.078l0.195-0.104 7.799 11.437c0.124 0.195 0.224 0.394 0.374 0.558l9.881 14.487-0.28 0.165c28.512 43.154 55.654 90.059 80.614 140.14 48.212 96.619 83.294 193.014 98.78 271.407 16.982 85.972 8.298 140.605-25.177 158.012v0zM236.001 87.418l-8.925-11.149 0.456-0.469c-10.239-11.408-33.776-31.535-81.098-46.911-18.693-6.074-39.619-10.949-62.185-14.409-7.926-1.229-14.368-2.127-19.665-2.744 20.082 21.211 47.646 54.080 35.242 94.739l-0.245 0.794-0.339 0.734c-0.893 2.173-1.789 4.423-2.531 6.707-13.968 42.989 9.053 89.143 51.336 102.881 4.698 1.526 9.865 2.503 15.912 3.068l0.818 0.046 77.991-40.593c3.292-5.511 5.647-10.555 7.28-15.581 8.651-26.626 3.411-55.473-14.046-77.114v0zM251.836 211.347l-70.349 36.597c0.543 38.378 10.949 90.682 29.839 150.015l141.757-73.762c-35.844-50.475-71.179-89.856-101.248-112.85v0zM547.948 754.060c-14.951-75.651-49.056-169.151-95.994-263.291-25.034-50.131-52.119-97.212-80.676-140.137l-149.695 77.855c17.2 48.83 38.563 98.886 63.558 149.017 87.164 174.785 183.767 282.792 234.135 299.158 8.529 2.771 15.331 2.88 20.281 0.331 13.68-7.101 24.070-43.578 8.392-122.934v0z" />
<glyph unicode="&#xe91e;" glyph-name="general" horiz-adv-x="1176" d="M1175.704-62.069h-1175.704v949.522c0 40.014 31.208 72.546 69.568 72.546h473.861c38.375 0 69.564-32.532 69.564-72.546v-21.765c0-26.708 20.755-48.378 46.379-48.378h446.768c38.375 0 69.564-32.532 69.564-72.541v-806.838z" />
<glyph unicode="&#xe91f;" glyph-name="technical" d="M914.395 555.583h-15.25c-8.503 29.877-20.498 58.531-35.858 85.681l10.825 10.711c42.752 42.356 42.715 111.308-0.073 153.7-20.791 20.607-48.32 31.943-77.568 31.943h-0.073c-29.248-0.018-56.75-11.346-77.431-31.862l-10.825-10.729c-27.355 15.206-56.283 27.095-86.427 35.523v15.115c0 59.909-49.216 108.635-109.714 108.635s-109.714-48.726-109.714-108.635v-15.115c-30.144-8.428-59.072-20.317-86.427-35.523l-10.825 10.711c-42.752 42.356-112.32 42.319-155.072-0.072-20.791-20.616-32.247-47.965-32.219-76.954 0-28.971 11.429-56.229 32.146-76.728l10.789-10.729c-15.323-27.15-27.319-55.822-35.822-85.681h-15.25c-60.425 0-109.605-48.78-109.605-108.743s49.179-108.743 109.605-108.743h15.25c8.503-29.859 20.498-58.531 35.822-85.681l-10.789-10.711c-42.752-42.356-42.715-111.308 0.073-153.7 20.791-20.607 48.32-31.943 77.568-31.943h0.073c29.211 0.018 56.713 11.327 77.431 31.862l10.825 10.729c27.355-15.206 56.283-27.095 86.427-35.523v-15.115c0-59.909 49.216-108.635 109.714-108.635s109.714 48.726 109.714 108.635v15.115c30.144 8.428 59.072 20.317 86.427 35.523l10.825-10.711c42.752-42.374 112.32-42.301 155.072 0.072 20.791 20.616 32.247 47.965 32.219 76.954 0 28.971-11.429 56.229-32.146 76.746l-10.825 10.711c15.36 27.15 27.355 55.803 35.858 85.681h15.25c60.425 0 109.605 48.78 109.605 108.743s-49.179 108.743-109.605 108.743zM914.395 410.592h-44.005c-17.39 0-32.393-12.143-35.858-29.044-8.357-40.996-24.503-79.537-47.927-114.579-9.609-14.372-7.643-33.457 4.645-45.645l31.141-30.883c6.93-6.833 10.715-15.895 10.715-25.5 0.037-9.624-3.822-18.74-10.789-25.663-14.245-14.109-37.394-14.191-51.639-0.054l-31.141 30.847c-12.325 12.179-31.607 14.073-46.034 4.567-35.355-23.18-74.249-39.166-115.602-47.485-17.079-3.407-29.33-18.278-29.33-35.523v-43.606c0-20.263-16.073-36.139-36.571-36.139-20.178 0-36.571 16.212-36.571 36.139v43.606c0 17.236-12.251 32.106-29.321 35.523-41.362 8.319-80.247 24.304-115.602 47.485-6.144 4.051-13.184 6.035-20.178 6.035-9.426 0-18.789-3.607-25.856-10.602l-31.141-30.865c-6.93-6.851-16.073-10.639-25.746-10.639h-0.037c-9.71 0-18.889 3.788-25.856 10.711-14.245 14.119-14.281 37.1-0.073 51.2l31.104 30.865c12.288 12.179 14.217 31.255 4.645 45.609-23.387 35.061-39.534 73.628-47.89 114.597-3.465 16.901-18.469 29.044-35.858 29.044h-44.005c-20.105 0-36.462 16.266-36.462 36.248s16.357 36.248 36.462 36.248h43.995c17.39 0 32.393 12.143 35.858 29.044 8.357 40.978 24.503 79.537 47.89 114.597 9.573 14.354 7.643 33.439-4.645 45.609l-31.104 30.901c-6.93 6.833-10.715 15.895-10.715 25.5-0.037 9.624 3.822 18.74 10.789 25.663 14.217 14.119 37.358 14.209 51.639 0.054l31.141-30.847c12.325-12.197 31.607-14.109 46.034-4.567 35.355 23.18 74.249 39.166 115.602 47.485 17.070 3.416 29.321 18.287 29.321 35.523v43.606c0 20.263 16.073 36.139 36.571 36.139 20.178 0 36.571-16.212 36.571-36.139v-43.606c0-17.236 12.251-32.106 29.321-35.523 41.362-8.319 80.247-24.304 115.602-47.485 14.427-9.542 33.719-7.63 46.034 4.567l31.177 30.883c6.894 6.851 16.037 10.621 25.71 10.621h0.037c9.71 0 18.889-3.788 25.856-10.711 14.245-14.119 14.281-37.1 0.073-51.182l-31.141-30.865c-12.288-12.197-14.245-31.273-4.645-45.645 23.424-35.043 39.57-73.592 47.927-114.579 3.465-16.901 18.469-29.044 35.858-29.044h43.995c20.105 0 36.462-16.266 36.462-36.248s-16.329-36.248-36.434-36.248zM512 591.831c-80.677 0-146.286-65.047-146.286-144.991s65.609-144.991 146.286-144.991c80.677 0 146.286 65.047 146.286 144.991s-65.6 144.991-146.286 144.991zM512 374.344c-40.32 0-73.143 32.514-73.143 72.496s32.823 72.496 73.143 72.496c40.32 0 73.143-32.514 73.143-72.496s-32.823-72.496-73.143-72.496v0z" />
<glyph unicode="&#xe920;" glyph-name="business" d="M883.925 422.883h-398.437v398.437c0 16.101-12.88 28.981-28.981 28.981-251.599 0-456.399-204.8-456.399-456.399s204.8-456.399 456.399-456.399c251.599 0 456.399 204.8 456.399 456.399 0 15.886-13.095 28.981-28.981 28.981v0zM456.507-4.535c-219.613 0-398.437 178.824-398.437 398.437 0 209.952 163.153 382.551 369.456 397.364v-397.364c0-16.101 12.881-28.981 28.981-28.981h397.364c-14.813-206.303-187.411-369.456-397.364-369.456zM1022.39 505.104c-0.429 110.772-41.003 217.466-114.207 300.545-86.729 98.106-211.24 154.351-342.192 154.351-16.101 0-28.981-12.881-28.981-28.981v-427.418c0-16.101 12.88-28.981 28.981-28.981h427.418c16.101 0 28.981 12.881 28.981 28.981v1.503zM594.972 532.367v368.382c103.473-7.514 200.507-55.386 269.632-133.743 57.962-65.476 92.31-147.911 98.751-234.64h-368.382z" />
</font>
</defs>
</svg>
