<?xml version="1.0" standalone="no"?>
<!DOCTYPE svg PUBLIC "-//W3C//DTD SVG 1.1//EN" "http://www.w3.org/Graphics/SVG/1.1/DTD/svg11.dtd" >
<svg xmlns="http://www.w3.org/2000/svg">
<metadata></metadata>
<defs>
<font id="museo_sans500" horiz-adv-x="1102" >
<font-face units-per-em="2048" ascent="1536" descent="-512" />
<missing-glyph horiz-adv-x="568" />
<glyph unicode="&#xfb01;" horiz-adv-x="1293" d="M89 947v172h139v38q0 76 16 139t42 105t63 74t74 50t80 29.5t76.5 14.5t68.5 3q22 0 42.5 -1.5t29.5 -2.5l10 -2v-184q-22 5 -55 5q-29 0 -56 -4t-61.5 -19t-58.5 -39t-41 -68.5t-17 -104.5v-33h684v-1119h-213v947h-471v-947h-213v947h-139zM909 1342v220h216v-220h-216 z" />
<glyph unicode="&#xfb02;" horiz-adv-x="1328" d="M89 931v173h139v53q0 76 16 139t42 105t63 74t74 50t80 29.5t76.5 14.5t68.5 3q22 0 42.5 -1.5t29.5 -2.5l10 -2v-184q-22 5 -55 5q-29 0 -56 -4t-61.5 -19t-58.5 -39t-41 -68.5t-17 -104.5v-48h264v-173h-264v-931h-213v931h-139zM897 306v1256h215v-1220q0 -39 6.5 -68 t17 -46t26.5 -27t32.5 -13.5t37.5 -3.5l38 2v-190q-33 -5 -71 -5q-30 0 -55.5 2.5t-57.5 11t-57.5 22t-50.5 37.5t-42 56.5t-28 79.5t-11 106z" />
<glyph horiz-adv-x="0" />
<glyph horiz-adv-x="682" />
<glyph unicode=" "  horiz-adv-x="568" />
<glyph unicode="&#x09;" horiz-adv-x="568" />
<glyph unicode="&#xa0;" horiz-adv-x="568" />
<glyph unicode="!" horiz-adv-x="703" d="M241 1562h221l-13 -1133h-192zM243 0v215h219v-215h-219z" />
<glyph unicode="&#x22;" horiz-adv-x="756" d="M139 1172v416h169v-416h-169zM449 1172v416h168v-416h-168z" />
<glyph unicode="#" horiz-adv-x="1587" d="M97 422l27 164h290l63 372h-285l27 161h288l77 443h180l-78 -443h342l78 443h179l-78 -443h290l-28 -161h-287l-67 -372h287l-28 -164h-285l-76 -422h-179l73 422h-343l-73 -422h-179l72 422h-287zM593 586h342l67 372h-343z" />
<glyph unicode="$" horiz-adv-x="1251" d="M120 179l123 166q3 -4 9.5 -10t28.5 -23.5t45.5 -33t60.5 -35t74 -33.5t85 -23.5t96 -9.5q114 0 192 61.5t78 168.5q0 52 -26.5 95t-70.5 75t-101.5 61.5t-121 57t-127 57.5t-121 68t-102 83.5t-70.5 109t-26 138.5q0 107 51 198.5t145 152.5t215 78v209h158v-207 q69 -5 133.5 -22t107 -38.5t75 -42.5t47.5 -35l15 -14l-99 -181q-3 2 -9 7t-25 19t-39.5 27t-52 28.5t-63.5 26.5t-73 19t-82 8q-124 0 -203.5 -66.5t-79.5 -161.5q0 -45 21.5 -83t58.5 -65.5t86 -54.5t104 -49t113 -49.5t113.5 -54.5t104.5 -66t85.5 -83t58 -105t21.5 -133 q0 -83 -29 -157.5t-82 -132t-132 -96t-175 -50.5v-204h-158v204q-57 6 -112.5 20.5t-98 32.5t-80 38.5t-63.5 40t-45.5 35t-28.5 25.5z" />
<glyph unicode="%" horiz-adv-x="1682" d="M106 1260q0 89 44.5 164t121.5 119.5t168.5 44.5t169 -44.5t122.5 -119.5t45 -164t-45 -164.5t-122.5 -119t-169 -43.5t-168.5 43.5t-121.5 119t-44.5 164.5zM139 0l1195 1562h207l-1193 -1562h-209zM276 1260q0 -69 47.5 -116t117 -47t116.5 47t47 116t-47 118t-116 49 t-117 -49t-48 -118zM907 301q0 66 26.5 126.5t71 104.5t107 70.5t131.5 26.5q90 0 167.5 -44.5t123 -120t45.5 -163.5q0 -89 -45.5 -164.5t-123 -119.5t-167.5 -44q-92 0 -169.5 44t-122 119.5t-44.5 164.5zM1079 301q0 -69 47 -116.5t117 -47.5q68 0 116 47.5t48 116.5 q0 68 -48 117t-116 49q-69 0 -116.5 -48.5t-47.5 -117.5z" />
<glyph unicode="&#x26;" horiz-adv-x="1512" d="M120 438q0 134 74 246t200 154v4q-4 2 -11.5 5t-29 16t-41 29t-43 44.5t-41 62t-29 82.5t-11.5 105q0 95 36 171.5t100 126.5t151.5 77t191.5 27q39 0 86.5 -6t76.5 -12l29 -6l-57 -175q-63 13 -116 13q-120 0 -198.5 -64t-78.5 -175q0 -26 5 -51.5t16 -54.5t33 -53 t52 -44t77 -31t105 -11h289v213h215v-213h208v-190h-208v-209q0 -259 -144 -402.5t-396 -143.5q-120 0 -221.5 36t-171.5 98t-109 147.5t-39 183.5zM342 449q0 -115 88.5 -194.5t230.5 -79.5q154 0 239.5 87.5t85.5 265.5v200h-298q-165 0 -255.5 -73.5t-90.5 -205.5z" />
<glyph unicode="'" horiz-adv-x="448" d="M139 1172v416h171v-416h-171z" />
<glyph unicode="(" horiz-adv-x="667" d="M162 752q0 466 256 873h188q-250 -415 -250 -875q0 -509 250 -961h-188q-121 203 -188.5 451.5t-67.5 511.5z" />
<glyph unicode=")" horiz-adv-x="667" d="M62 -211q250 454 250 961q0 458 -250 875h187q258 -409 258 -873q0 -263 -68 -511t-190 -452h-187z" />
<glyph unicode="*" horiz-adv-x="1032" d="M80 1172l57 186l294 -111l-15 315h201l-18 -315l296 111l61 -186l-304 -81v-5l195 -244l-157 -114l-171 260h-4l-173 -260l-158 114l196 244v5z" />
<glyph unicode="+" horiz-adv-x="1509" d="M171 544v173h494v543h182v-543h493v-173h-493v-544h-182v544h-494z" />
<glyph unicode="," horiz-adv-x="563" d="M59 -224l138 456h219l-186 -456h-171z" />
<glyph unicode="-" horiz-adv-x="1043" d="M199 536v190h646v-190h-646z" />
<glyph unicode="." horiz-adv-x="561" d="M168 0v228h226v-228h-226z" />
<glyph unicode="/" horiz-adv-x="893" d="M80 -93l562 1739h190l-562 -1739h-190z" />
<glyph unicode="0" horiz-adv-x="1382" d="M139 783q0 99 8.5 186.5t28 169.5t49.5 149.5t74 123.5t100 94.5t130 60t161 21.5q122 0 217.5 -41t158 -112.5t103 -174.5t57.5 -220t17 -257t-17 -258t-57.5 -222t-103 -175.5t-158 -113t-217.5 -41.5t-216.5 41.5t-157 113t-103 175.5t-57.5 222t-17 258zM363 783 q0 -107 9.5 -194.5t32.5 -166t59.5 -132t94 -84.5t131.5 -31q75 0 132.5 31t94.5 84.5t60.5 132t33 166t9.5 194.5q0 106 -9.5 193t-33 165t-60.5 131t-94.5 84t-132.5 31q-74 0 -131.5 -31t-94 -84t-59.5 -131t-32.5 -165t-9.5 -193z" />
<glyph unicode="1" horiz-adv-x="1081" d="M112 1199l375 363h194v-1372h341v-190h-898v190h345v1009l2 97h-4q-19 -36 -76 -91l-146 -143z" />
<glyph unicode="2" horiz-adv-x="1264" d="M122 120q0 64 15 124t35 106t59.5 96t69.5 82t85 75.5t86.5 66.5t91.5 64l72 51t65 48.5t62 52t49 52t41.5 58t23.5 60t10 67.5q0 116 -78.5 187.5t-202.5 71.5q-42 0 -82 -11t-70.5 -28.5t-58 -38.5t-46.5 -42t-32.5 -38.5t-20.5 -28.5l-7 -11l-160 108q2 6 8 16.5 t27.5 41.5t47 59t68 62t90 58.5t113.5 41.5t138 17q107 0 198.5 -32.5t156.5 -90.5t102 -142t37 -184q0 -58 -14.5 -113t-33.5 -97.5t-57 -88.5t-67 -75.5t-82 -70.5t-83 -62.5t-88 -60.5q-67 -46 -100.5 -69.5t-84.5 -66t-75.5 -75.5t-44 -78t-20.5 -92h774v-190h-1006 q-11 70 -11 120z" />
<glyph unicode="3" horiz-adv-x="1253" d="M89 186l119 166l18.5 -18.5t50 -41t79.5 -52t104 -41t126 -18.5q88 0 160.5 36t115.5 101.5t43 148.5q0 69 -29.5 125t-80 90.5t-115.5 53t-138 18.5h-109l-51 118l342 400q22 27 46.5 52t37.5 38l13 12v4q-47 -6 -133 -6h-529v190h934v-140l-426 -489q65 -7 127 -26.5 t123 -57t106.5 -88t73.5 -124.5t28 -162q0 -57 -12 -112t-36.5 -104.5t-58.5 -93.5t-79.5 -79t-98 -60.5t-115 -39t-130.5 -13.5q-65 0 -128 11.5t-112 30.5t-93 41.5t-75 45.5t-53.5 41.5t-33.5 30.5z" />
<glyph unicode="4" horiz-adv-x="1340" d="M68 418v137l721 1007h251v-958h212v-186h-212v-418h-215v418h-757zM310 604h515v568q0 32 2 71t5 62l2 22h-5q-35 -73 -77 -128l-442 -591v-4z" />
<glyph unicode="5" horiz-adv-x="1245" d="M106 190l122 160q5 -7 14.5 -18.5t42 -40.5t69.5 -51t95.5 -40.5t120.5 -18.5q92 0 170 39t126 112.5t48 165.5t-47 165.5t-128.5 114.5t-181.5 41q-42 0 -85 -8t-73.5 -19.5t-55 -23t-37.5 -19.5l-12 -8l-126 46l77 775h787v-190h-597l-36 -330q-1 -9 -2 -19t-2 -17.5 l-2 -15t-2 -13t-2 -9.5t-2 -6v-2h4q10 6 27.5 14t70.5 21.5t104 13.5q121 0 223.5 -40t172.5 -109t109 -162t39 -198q0 -89 -27 -170t-77 -145.5t-117.5 -112.5t-152.5 -73.5t-179 -25.5q-65 0 -127 12t-108.5 31t-87 42.5t-68.5 46.5t-48 42t-30 31z" />
<glyph unicode="6" horiz-adv-x="1324" d="M131 710q0 87 13 174.5t41.5 174.5t69 164.5t99 144.5t128.5 115.5t160.5 76.5t191.5 28q37 0 74 -3.5t66.5 -9.5t56 -12.5t45.5 -13.5t33 -12.5t21 -9.5l7 -3l-71 -188q-11 6 -31 14t-78.5 22.5t-114.5 14.5q-83 0 -155 -30t-124 -80t-92 -118t-63.5 -142t-33.5 -154h4 q49 66 145.5 107t200.5 41q108 0 201 -40t156.5 -109t99 -164t35.5 -202q0 -152 -64 -271.5t-178.5 -185.5t-258.5 -66q-124 0 -232 53t-185.5 148t-122 233.5t-44.5 302.5zM361 606q0 -76 27 -153t73 -138.5t112.5 -100.5t138.5 -39q131 0 209.5 90.5t78.5 230.5 q0 71 -22.5 131.5t-63 104.5t-101.5 68.5t-134 24.5q-64 0 -123.5 -18.5t-102 -49t-67.5 -70.5t-25 -81z" />
<glyph unicode="7" horiz-adv-x="1169" d="M78 1372v190h1043v-150l-705 -1412h-226l608 1230q20 39 42.5 75t35.5 53l13 16v4q-35 -6 -115 -6h-696z" />
<glyph unicode="8" horiz-adv-x="1342" d="M126 451q0 68 23 133t52 108.5t70 85t62 58t43 31.5q-83 60 -129 135.5t-46 176.5q0 64 18.5 123t58 111t96 91t137.5 61.5t177 22.5q108 0 199 -29.5t155.5 -83t100.5 -132t36 -173.5q0 -43 -10 -88t-22.5 -79.5t-35 -74t-36 -61t-37 -51t-27.5 -34t-17 -18.5 q48 -30 84 -61.5t66 -71.5t45.5 -90.5t15.5 -109.5q0 -91 -38 -174t-106.5 -146t-170 -100.5t-219.5 -37.5q-116 0 -217 35.5t-173 97.5t-113.5 151.5t-41.5 193.5zM350 464q0 -65 26.5 -121t71 -93t102.5 -58t121 -21q82 0 152 32.5t113.5 94.5t43.5 140q0 28 -8 53 t-24 46.5t-35.5 40t-48 37t-55.5 33.5t-63.5 32t-66.5 30.5t-70.5 31.5t-70.5 32q-21 -14 -40 -29.5t-48 -46t-49.5 -62.5t-35.5 -78t-15 -94zM418 1174q0 -25 6.5 -48.5t16.5 -43t28 -39t34.5 -33.5t44 -31t48.5 -28t55 -26.5t56 -25t60.5 -25.5t59.5 -25q16 16 33 37.5 t44 62.5t43.5 96t16.5 112q0 106 -77 170t-201 64q-126 0 -197 -61.5t-71 -155.5z" />
<glyph unicode="9" horiz-adv-x="1324" d="M108 1066q0 152 64.5 271t179 185t258.5 66q124 0 231.5 -53t185.5 -147.5t122.5 -233t44.5 -303.5q0 -87 -13 -175t-41.5 -174.5t-69 -164.5t-99 -144.5t-128.5 -115.5t-160 -76.5t-192 -27.5q-52 0 -102 6.5t-85 16t-62.5 19t-40.5 16.5l-13 7l71 190q11 -6 31 -15 t78 -23.5t114 -14.5q83 0 155.5 29.5t124.5 80t92 118t63.5 142t33.5 154.5h-4q-47 -66 -144 -106t-201 -40q-145 0 -258.5 68t-174.5 184.5t-61 260.5zM325 1066q0 -146 86.5 -237.5t234.5 -91.5q86 0 160 31.5t116 82t42 105.5q0 76 -27.5 153t-73.5 138.5t-112.5 100.5 t-138.5 39q-132 0 -209.5 -90.5t-77.5 -230.5z" />
<glyph unicode=":" horiz-adv-x="645" d="M211 0v228h224v-228h-224zM211 891v228h224v-228h-224z" />
<glyph unicode=";" horiz-adv-x="648" d="M104 -224l117 456h222l-167 -456h-172zM224 891v228h225v-228h-225z" />
<glyph unicode="&#x3c;" horiz-adv-x="1233" d="M73 557v146l1031 460v-196l-792 -334v-4l792 -335v-197z" />
<glyph unicode="=" horiz-adv-x="1479" d="M213 334v173h1055v-173h-1055zM213 752v172h1055v-172h-1055z" />
<glyph unicode="&#x3e;" horiz-adv-x="1233" d="M131 97v197l789 335v4l-789 334v196l1030 -460v-146z" />
<glyph unicode="?" horiz-adv-x="1081" d="M71 1450q6 6 17.5 15.5t49.5 34.5t80 43.5t107 34t133 15.5q93 0 177.5 -29t147.5 -81t100 -128.5t37 -166.5q0 -74 -21.5 -137.5t-56 -109t-76.5 -86t-83.5 -77t-76.5 -73.5t-56.5 -84.5t-21.5 -101.5v-90h-209v105q0 48 10.5 92t28.5 78.5t42 67t51 58.5t55.5 53 t55.5 50.5t51 51.5t42 55t28.5 61t10.5 71q0 93 -71 156t-180 63q-39 0 -79.5 -9.5t-70.5 -23t-54 -27.5t-36 -23l-13 -10zM314 0v215h220v-215h-220z" />
<glyph unicode="@" horiz-adv-x="1815" d="M131 534q0 168 63 319.5t170.5 260.5t257 173t315.5 64q125 0 224 -24.5t164 -65.5t108 -99t61.5 -122t18.5 -137v-627h159v-162h-604q-101 0 -187.5 34.5t-145.5 92t-92 133.5t-33 160q0 82 33 157t91.5 132t145 90.5t188.5 33.5h239q-4 99 -98 163t-260 64 q-125 0 -238 -52t-193 -139t-126.5 -204.5t-46.5 -244.5q0 -131 45.5 -247.5t126.5 -202t199.5 -136t256.5 -50.5v-174q-182 0 -340 63t-267.5 172t-172 258t-62.5 317zM827 536q0 -109 73 -184.5t184 -75.5h223v522h-218q-114 0 -188 -76.5t-74 -185.5z" />
<glyph unicode="A" horiz-adv-x="1388" d="M17 0l563 1562h230l562 -1562h-228l-158 449h-587l-156 -449h-226zM456 631h473l-173 494q-8 23 -16.5 54t-16 59t-13.5 53.5t-10 40.5l-3 15h-5q-34 -142 -61 -222z" />
<glyph unicode="B" horiz-adv-x="1401" d="M213 0v1562h545q132 0 234.5 -46.5t161 -138t58.5 -214.5q0 -113 -52 -201t-143 -135v-4q121 -36 189 -140t68 -238q0 -107 -39.5 -193t-108.5 -140.5t-159.5 -83t-194.5 -28.5h-559zM431 190h352q125 0 196.5 72.5t71.5 193.5q0 120 -74 194t-196 74h-350v-534zM431 905 h327q105 0 167.5 66t62.5 171q0 68 -27 120t-80 81t-127 29h-323v-467z" />
<glyph unicode="C" horiz-adv-x="1596" d="M106 789q0 168 61 316t166 254t252.5 167.5t315.5 61.5q76 0 149 -11.5t128 -29.5t103.5 -40t82 -44t58 -40t35.5 -29l12 -12l-108 -164q-8 7 -21.5 18.5t-59.5 41t-95.5 52t-124.5 41t-151 18.5q-128 0 -237 -47t-183 -127.5t-115.5 -190t-41.5 -232.5 q0 -100 26.5 -192.5t77.5 -169.5t121 -134t161 -89t194 -32q82 0 162 21t135 50.5t98.5 59.5t64.5 51l21 21l118 -157q-5 -5 -13.5 -14t-38.5 -34.5t-63.5 -49t-87.5 -52.5t-111.5 -49.5t-134.5 -34.5t-157 -14q-172 0 -322 63.5t-254 172.5t-163.5 260t-59.5 320z" />
<glyph unicode="D" horiz-adv-x="1636" d="M213 0v1562h517q179 0 325.5 -53t249.5 -151.5t160 -245t57 -329.5t-57 -331t-160 -247t-249.5 -152t-325.5 -53h-517zM431 190h284q177 0 307 67.5t202 202t72 323.5q0 188 -72.5 321.5t-202.5 200.5t-306 67h-284v-1182z" />
<glyph unicode="E" horiz-adv-x="1266" d="M213 0v1562h906v-190h-688v-490h560v-190h-560v-502h726v-190h-944z" />
<glyph unicode="F" horiz-adv-x="1152" d="M213 0v1562h859v-190h-641v-513h546v-192h-546v-667h-218z" />
<glyph unicode="G" horiz-adv-x="1680" d="M108 783q0 167 61 316t166 256t253.5 170t316.5 63q76 0 148.5 -10.5t127.5 -27t104 -36.5t82.5 -40t58 -37t36.5 -27l11 -10l-110 -163q-7 6 -20.5 16t-58 36.5t-92.5 46.5t-121.5 36.5t-148.5 16.5q-134 0 -246 -47t-186.5 -128.5t-115 -191.5t-40.5 -235 q0 -133 44 -248t120.5 -194.5t183 -124.5t227.5 -45q55 0 109.5 10.5t97 28t81 38t66 41.5t48 38t30.5 28l10 10v226h-254v190h454v-785h-193v97l3 67h-6q-7 -8 -20 -20.5t-59 -45.5t-97.5 -58.5t-133.5 -46t-169 -20.5q-156 0 -297 60t-245 165t-165 257.5t-61 327.5z" />
<glyph unicode="H" horiz-adv-x="1671" d="M213 0v1562h218v-686h810v686h219v-1562h-219v686h-810v-686h-218z" />
<glyph unicode="I" horiz-adv-x="642" d="M213 0v1562h218v-1562h-218z" />
<glyph unicode="J" horiz-adv-x="1186" d="M66 449v77h217v-66q0 -77 21 -134t57 -89t78.5 -47t91.5 -15q48 0 90 15t77.5 46t55.5 86t20 129v921h-394v190h614v-1113q0 -98 -27 -179t-71.5 -135t-105 -91.5t-126.5 -54t-136 -16.5t-135.5 17t-125.5 54.5t-104.5 92t-70.5 135t-26 177.5z" />
<glyph unicode="K" horiz-adv-x="1377" d="M213 0v1562h218v-657h232l394 657h241l-453 -741v-5l482 -816h-248l-416 717h-232v-717h-218z" />
<glyph unicode="L" horiz-adv-x="1169" d="M213 0v1562h218v-1372h700v-190h-918z" />
<glyph unicode="M" horiz-adv-x="1914" d="M164 0l125 1562h230l359 -845q7 -18 15.5 -39t15.5 -40.5t14.5 -39.5t13 -36t10 -28.5t6.5 -19.5l3 -7h4q42 124 78 210l357 845h230l127 -1562h-217l-77 984q-4 42 -4 100v36q0 34 1 58l1 36h-6q-45 -144 -83 -230l-312 -703h-194l-310 703q-16 37 -37 96t-34 98l-13 40 h-5v-67q0 -96 -4 -167l-76 -984h-218z" />
<glyph unicode="N" horiz-adv-x="1674" d="M213 0v1562h216l694 -1016q26 -37 58.5 -93.5t52.5 -94.5l20 -37h4q-15 139 -15 225v1016h219v-1562h-215l-696 1013q-16 24 -35.5 56.5t-35.5 61.5t-30 54.5t-22 40.5l-8 15h-4q15 -140 15 -228v-1013h-218z" />
<glyph unicode="O" horiz-adv-x="1815" d="M106 792q0 165 62.5 313t169.5 253.5t256 167.5t315.5 62t315 -62t255 -167.5t168.5 -253.5t62 -313q0 -170 -62 -322t-168.5 -261t-255 -172.5t-315 -63.5t-315.5 63.5t-256 172.5t-169.5 261t-62.5 322zM332 792q0 -130 45.5 -245t123 -196t184 -128.5t224.5 -47.5 t224 47t183 128.5t122.5 196.5t45.5 245q0 100 -29 192t-82 165t-123.5 127.5t-158 83.5t-182.5 29q-117 0 -224 -46t-184.5 -125t-123 -190t-45.5 -236z" />
<glyph unicode="P" horiz-adv-x="1342" d="M213 0v1562h570q142 0 253.5 -60t174.5 -172t63 -257.5t-63 -258.5t-174.5 -174.5t-253.5 -61.5h-352v-578h-218zM431 768h316q141 0 222.5 81.5t81.5 222.5q0 93 -36.5 161t-104.5 103.5t-160 35.5h-319v-604z" />
<glyph unicode="Q" horiz-adv-x="1841" d="M108 789q0 167 62 315t169 254t255.5 168t314.5 62q168 0 317 -62t255.5 -168t168.5 -254t62 -315q0 -144 -48.5 -276.5t-135.5 -238.5l186 -177l-129 -137l-181 181q-211 -168 -495 -168q-166 0 -315 64t-255.5 173t-168.5 260t-62 319zM334 789q0 -128 44.5 -242.5 t121.5 -196t183.5 -128.5t225.5 -47q90 0 180.5 30t157.5 84l-183 180l128 137l180 -182q35 49 60.5 107.5t39.5 124.5t14 133q0 127 -44.5 239t-121.5 191t-183.5 124.5t-227.5 45.5q-119 0 -225.5 -45.5t-183.5 -124.5t-121.5 -191t-44.5 -239z" />
<glyph unicode="R" horiz-adv-x="1416" d="M213 0v1562h477q79 0 136 -5t90 -12t66 -19q120 -45 191.5 -157.5t71.5 -264.5q0 -150 -76.5 -265.5t-204.5 -157.5v-4q18 -20 47 -71l331 -606h-247l-329 621h-335v-621h-218zM431 812h314q128 0 202.5 76t74.5 207q0 172 -125 241q-23 12 -47 19t-66 12t-100 5h-253 v-560z" />
<glyph unicode="S" horiz-adv-x="1207" d="M93 179l124 166q7 -7 19.5 -18.5t53.5 -40.5t84.5 -51t109.5 -40t131 -18q114 0 192 61.5t78 168.5q0 49 -21.5 90.5t-57.5 71t-84.5 58t-103 51t-112 49.5t-112 53.5t-103 63.5t-84.5 79t-57 101t-21 128q0 72 24 138.5t69 120t106 93.5t139.5 62t165.5 22 q59 0 115.5 -9t99 -22.5t80.5 -30.5t64 -33.5t45.5 -30.5t28.5 -22l9 -9l-100 -181q-3 2 -8.5 7t-24.5 19t-39 27t-51.5 28.5t-63.5 26.5t-73.5 19t-81.5 8q-123 0 -203 -66.5t-80 -161.5q0 -42 18.5 -78t42.5 -60.5t73.5 -52.5t82 -42.5t98.5 -42.5q59 -25 90.5 -39t86 -42 t85 -51t70 -60t59.5 -75t35 -90t15 -110q0 -91 -34.5 -171t-97 -140t-156.5 -95t-208 -35q-67 0 -132.5 11.5t-115.5 29.5t-94.5 40t-75.5 44t-54 40.5t-34 29.5z" />
<glyph unicode="T" horiz-adv-x="1311" d="M11 1372v190h1289v-190h-534v-1372h-220v1372h-535z" />
<glyph unicode="U" horiz-adv-x="1609" d="M190 553v1009h219v-1009q0 -177 106.5 -277.5t286.5 -100.5q183 0 291 101t108 281v1005h219v-1009q0 -172 -77.5 -304t-217.5 -204t-320.5 -72t-320.5 72t-217 204t-77 304z" />
<glyph unicode="V" horiz-adv-x="1397" d="M13 1562h236l388 -1104q8 -24 17.5 -54.5t16.5 -58t13 -51t9 -37.5l4 -14h4q31 131 60 215l391 1104h233l-575 -1562h-219z" />
<glyph unicode="W" horiz-adv-x="2096" d="M73 1562h225l277 -1146q5 -24 10 -49.5t8.5 -45.5t5.5 -37t4 -26l1 -9h4q12 81 34 167l305 1146h195l304 -1146q10 -39 18 -80.5t12 -63.5l4 -23h4q8 83 29 167l287 1146h226l-409 -1562h-254l-270 1013q-12 44 -23.5 99.5t-17.5 88.5l-5 33h-5q-19 -122 -46 -221 l-270 -1013h-255z" />
<glyph unicode="X" horiz-adv-x="1353" d="M49 0l493 805l-462 757h252l246 -423q13 -23 28.5 -51t27.5 -50.5t22 -42t16 -30.5l5 -11h4q45 99 96 185l245 423h252l-462 -757l493 -805h-248l-283 480l-99 179h-4q-43 -93 -93 -179l-284 -480h-245z" />
<glyph unicode="Y" horiz-adv-x="1300" d="M17 1562h249l289 -513q22 -39 45.5 -88.5t36.5 -79.5l13 -30h4q47 109 96 198l285 513h248l-522 -901v-661h-219v661z" />
<glyph unicode="Z" horiz-adv-x="1342" d="M91 0v146l751 1084q27 39 55 75t44 53l15 16v4q-42 -6 -118 -6h-707v190h1097v-144l-753 -1086q-26 -39 -54 -74.5t-43 -51.5l-15 -16v-4q41 4 117 4h757v-190h-1146z" />
<glyph unicode="[" horiz-adv-x="665" d="M224 -211v1836h365v-161h-178v-1510h178v-165h-365z" />
<glyph unicode="\" horiz-adv-x="893" d="M62 1646h190l562 -1739h-190z" />
<glyph unicode="]" horiz-adv-x="667" d="M78 -46h179v1510h-179v161h367v-1836h-367v165z" />
<glyph unicode="^" horiz-adv-x="1355" d="M152 546l443 1016h139l440 -1016h-192l-319 779l-315 -779h-196z" />
<glyph unicode="_" horiz-adv-x="1313" d="M62 0h1190v-173h-1190v173z" />
<glyph unicode="`" d="M356 1950h230l161 -280h-181z" />
<glyph unicode="a" horiz-adv-x="1167" d="M78 314q0 60 17.5 110.5t45.5 87t70.5 66.5t85 49t97 33t99.5 21t98.5 11.5t87 5.5t73.5 1h48v20q0 245 -245 245q-48 0 -98 -11t-87 -27t-66.5 -31.5t-45.5 -26.5l-15 -12l-89 157q4 3 10.5 7.5t28 18.5t45.5 26.5t62 28t77.5 26.5t91 18.5t103.5 7.5q213 0 328 -113.5 t115 -325.5v-707h-199v106q0 22 1.5 44.5t2.5 33.5l1 10h-5q-1 -4 -5 -12t-19 -31t-32.5 -44t-48 -46.5t-65 -44t-84 -31t-104.5 -12.5q-58 0 -113.5 14t-103.5 42t-84.5 68t-57.5 96t-21 121zM294 325q0 -73 55.5 -126t154.5 -53q66 0 123 32t94.5 83.5t59 114.5t21.5 126 v36h-55q-42 0 -76.5 -1t-83.5 -6t-87 -13.5t-78.5 -24.5t-67 -38t-43.5 -55t-17 -75z" />
<glyph unicode="b" horiz-adv-x="1326" d="M168 0v1562h214v-511q0 -16 -0.5 -31.5t-1 -26.5t-1 -19.5t-1.5 -13.5v-4h4q4 8 12 20.5t38.5 45.5t68 58t102 45.5t138.5 20.5q111 0 203.5 -43t155.5 -120t97.5 -185.5t34.5 -238.5q0 -105 -24.5 -197t-70 -163t-108 -122t-140.5 -77.5t-165 -26.5q-51 0 -98 10.5 t-81.5 27.5t-64 38t-49 41.5t-33.5 37.5t-20 28l-6 10h-5q5 -35 5 -84v-82h-204zM376 555q0 -60 12 -117.5t38 -108.5t62.5 -89.5t89 -60.5t114.5 -22q67 0 125.5 27t102.5 77t69.5 126.5t25.5 169.5q0 120 -40 211.5t-112 140.5t-164 49q-65 0 -122 -23.5t-102.5 -70.5 t-72 -126.5t-26.5 -182.5z" />
<glyph unicode="c" horiz-adv-x="1209" d="M89 559q0 123 44.5 231.5t122.5 186.5t190 123.5t242 45.5q79 0 151 -17t119 -41t82.5 -48t51.5 -41l16 -17l-101 -150q-3 2 -7.5 7t-21 18t-34 25.5t-46 27t-57.5 25t-67.5 18t-76.5 7.5q-112 0 -201 -51.5t-138.5 -142.5t-49.5 -204q0 -85 29.5 -159.5t81 -128 t125.5 -84.5t159 -31q58 0 115.5 15.5t97 37.5t71 44.5t46.5 37.5l16 16l86 -158q-6 -7 -18.5 -19t-55 -43t-90.5 -54.5t-124.5 -43t-158.5 -19.5q-130 0 -242 44.5t-190 122.5t-122.5 186.5t-44.5 232.5z" />
<glyph unicode="d" horiz-adv-x="1328" d="M95 559q0 132 37.5 242t104.5 185.5t160.5 117.5t204.5 42q52 0 100 -10t82 -25.5t62.5 -34.5t46.5 -37.5t30.5 -34.5t18.5 -25l5 -10h4q-4 33 -4 75v518h214v-1562h-203v106l2 75h-4q-2 -4 -6 -11.5t-19 -29t-33 -41.5t-49 -44t-66.5 -41t-86.5 -29t-107 -12 q-150 0 -262.5 74t-172 206.5t-59.5 305.5zM314 559q0 -180 88 -290t229 -110q64 0 120.5 23.5t102.5 70.5t73 126t27 183q0 50 -9 98.5t-26 93t-44 82t-61 65.5t-79.5 43.5t-97.5 15.5q-66 0 -125 -27t-103 -77t-69.5 -126.5t-25.5 -170.5z" />
<glyph unicode="e" horiz-adv-x="1226" d="M91 559q0 88 19 167.5t54.5 143.5t86.5 116t112.5 87t134.5 54t152 19q93 0 172 -27t136 -74.5t97.5 -113.5t60 -144.5t19.5 -165.5q0 -13 -2 -36t-4 -40l-1 -17h-816q4 -89 36.5 -160.5t85.5 -116.5t120 -68.5t143 -23.5q53 0 107 13.5t92.5 32.5t69.5 38.5t47 32.5 l15 13l89 -156q-7 -7 -19.5 -17.5t-55.5 -38t-90 -48.5t-120 -38.5t-148 -17.5q-130 0 -241 45t-188 123.5t-120.5 186.5t-43.5 231zM319 690h597q-3 93 -41 158.5t-96.5 96t-132.5 30.5q-126 0 -215 -75t-112 -210z" />
<glyph unicode="f" horiz-adv-x="743" d="M89 931v173h139v53q0 76 16 139t42 105t63 74t74 50t80 29.5t76.5 14.5t68.5 3q22 0 42.5 -1.5t29.5 -2.5l10 -2v-184q-22 5 -55 5q-29 0 -56 -4t-61.5 -19t-58.5 -39t-41 -68.5t-17 -104.5v-48h264v-173h-264v-931h-213v931h-139z" />
<glyph unicode="g" horiz-adv-x="1311" d="M95 586q0 121 33.5 223.5t95 177t154 117t206.5 42.5q55 0 104.5 -9t84 -24t63 -32.5t46.5 -35.5t30.5 -32.5t17.5 -23.5l5 -9h5q-3 16 -3 35v104h207v-1073q0 -107 -32 -194t-85 -145t-126.5 -97.5t-153 -56.5t-167.5 -17q-66 0 -135 11.5t-131.5 32.5t-116.5 48l71 169 q5 -3 15.5 -8t43.5 -18t67 -23t83.5 -18.5t97.5 -8.5q75 0 137.5 17.5t112 54t77 98.5t27.5 145v82l2 70h-4q-105 -175 -332 -175q-114 0 -209 44t-158.5 121.5t-98 182t-34.5 225.5zM312 591q0 -176 88 -284t237 -108q48 0 90 11.5t80.5 40t66 72t43.5 110t16 151.5 q0 376 -316 376q-145 0 -225 -98.5t-80 -270.5z" />
<glyph unicode="h" horiz-adv-x="1332" d="M168 0v1562h214v-574q0 -15 -0.5 -30t-1 -25.5t-1 -19.5t-1.5 -13v-5h4q20 44 55 85.5t85.5 80t122 62t151.5 23.5q196 0 291 -107t95 -322v-717h-215v667q0 51 -5 90t-19 76.5t-37 62t-61.5 39t-90.5 14.5q-125 0 -221.5 -76.5t-131.5 -199.5q-19 -63 -19 -149v-524 h-214z" />
<glyph unicode="i" horiz-adv-x="549" d="M166 1342v220h216v-220h-216zM168 0v1119h214v-1119h-214z" />
<glyph unicode="j" horiz-adv-x="547" d="M-122 -268q19 -2 49 -2q29 0 56.5 4t63 19.5t61 40.5t43 72t17.5 109v1144h212v-1157q0 -77 -16.5 -140.5t-43 -106t-64.5 -74.5t-75.5 -50t-81.5 -29t-77.5 -14.5t-67.5 -3.5q-21 0 -40 1t-27 2l-9 2v183zM166 1342v220h216v-220h-216z" />
<glyph unicode="k" horiz-adv-x="1163" d="M168 0v1562h214v-855h158l305 412h244l-372 -493v-5l414 -621h-251l-336 526h-162v-526h-214z" />
<glyph unicode="l" horiz-adv-x="585" d="M154 306v1256h215v-1220q0 -48 9 -81t27 -49t37.5 -22t46.5 -6l37 2v-190q-33 -5 -70 -5q-30 0 -55.5 2.5t-57.5 11t-57.5 22t-50.5 37.5t-42 56.5t-28 79.5t-11 106z" />
<glyph unicode="m" horiz-adv-x="2020" d="M168 0v1119h208v-148q0 -20 -1 -40.5t-2 -30.5l-1 -11h4q27 66 83.5 124t137 95.5t164.5 37.5q279 0 336 -255h5q48 107 157.5 181t240.5 74q188 0 278.5 -107t90.5 -322v-717h-214v671q0 51 -4.5 89.5t-17.5 76t-34.5 61.5t-57.5 38.5t-85 14.5q-57 0 -109.5 -23 t-92 -62.5t-68.5 -91t-44 -109.5q-17 -69 -17 -154v-511h-213v671q0 49 -3.5 85.5t-15.5 75.5t-32.5 63.5t-57 40t-86.5 15.5q-60 0 -113 -23.5t-93 -64.5t-69.5 -93.5t-45.5 -112.5q-14 -58 -14 -146v-511h-214z" />
<glyph unicode="n" horiz-adv-x="1332" d="M168 0v1119h208v-148q0 -20 -1 -40.5t-2 -30.5l-1 -11h4q14 32 37 64t60.5 68t82.5 63t107.5 44.5t132.5 17.5q196 0 291 -107t95 -322v-717h-215v667q0 51 -5 90t-19 76.5t-37 62t-61.5 39t-90.5 14.5q-127 0 -222.5 -75.5t-130.5 -198.5q-19 -63 -19 -151v-524h-214z " />
<glyph unicode="o" horiz-adv-x="1379" d="M86 562q0 124 48 233t129 186t192 121t235 44t235 -44t192.5 -121t129 -186t47.5 -233q0 -125 -47.5 -235t-129 -187.5t-192.5 -122t-235 -44.5t-235 44.5t-192 122t-129 187.5t-48 235zM306 562q0 -86 30.5 -161.5t82.5 -128.5t122.5 -83t148.5 -30q79 0 150 30 t122.5 83t82 128t30.5 162q0 85 -30.5 159.5t-82 126.5t-122.5 82t-150 30q-78 0 -148.5 -30t-122.5 -82t-82.5 -126.5t-30.5 -159.5z" />
<glyph unicode="p" horiz-adv-x="1326" d="M168 -443v1562h197v-95q0 -20 -1 -40.5t-2 -31.5l-1 -10h4q2 4 6 11.5t19.5 28.5t34 40.5t50.5 43t68.5 40.5t88.5 28.5t109 11.5q111 0 203.5 -43t155.5 -120t97.5 -185.5t34.5 -238.5q0 -131 -38 -241t-105.5 -185.5t-161 -117.5t-201.5 -42q-50 0 -96 10t-79.5 26.5 t-62.5 36t-48 39t-32.5 35.5t-19.5 26l-6 11h-4q4 -40 4 -98v-502h-214zM376 555q0 -76 21 -146.5t59.5 -127t100 -90.5t135.5 -34q67 0 125.5 27t102.5 77t69.5 126.5t25.5 169.5q0 120 -40 211.5t-112 140.5t-164 49q-65 0 -122 -23.5t-102.5 -70.5t-72 -126.5 t-26.5 -182.5z" />
<glyph unicode="q" horiz-adv-x="1328" d="M95 559q0 132 37.5 242t104.5 185.5t160.5 117.5t204.5 42q52 0 100.5 -10.5t83 -27t64 -36.5t48.5 -40t32.5 -36.5t19.5 -27.5l6 -10h4q-2 32 -2 77v84h203v-1562h-214v511q0 25 1 50t2 36l1 12h-4q-4 -8 -11.5 -21t-38 -46t-67.5 -58.5t-102 -46.5t-139 -21 q-150 0 -262.5 74t-172 206.5t-59.5 305.5zM314 559q0 -180 88 -290t229 -110q64 0 120.5 23.5t102.5 70.5t73 126t27 183q0 50 -9 98.5t-26 93t-44 82t-61 65.5t-79.5 43.5t-97.5 15.5q-66 0 -125 -27t-103 -77t-69.5 -126.5t-25.5 -170.5z" />
<glyph unicode="r" horiz-adv-x="829" d="M168 0v1119h208v-195q0 -13 -0.5 -26t-1 -23t-1.5 -18t-1 -13v-4h4q26 84 75.5 149t122 104.5t156.5 39.5q13 0 27 -1.5t21 -2.5l7 -1v-212q-28 6 -61 6q-105 0 -191 -70.5t-124 -192.5q-27 -89 -27 -201v-458h-214z" />
<glyph unicode="s" horiz-adv-x="990" d="M78 137l103 152q6 -5 15.5 -13.5t42 -31.5t67 -40t88.5 -31t108 -14q28 0 55 5.5t50.5 17t41.5 28t28.5 39.5t10.5 49q0 33 -19.5 60t-53 47.5t-76.5 39.5t-91 38t-95.5 40.5t-91 50t-76.5 63t-53 83.5t-20 107q0 99 55 172.5t146 110t204 36.5q69 0 131.5 -13t102.5 -31 t70 -36.5t44 -31.5l13 -12l-86 -161q-2 2 -6 5.5t-18 14t-29.5 19.5t-40 20.5t-51 20t-61.5 14t-71 5.5q-49 0 -89 -13.5t-67 -45.5t-27 -78q0 -32 19.5 -58.5t53 -46.5t76.5 -38.5t90.5 -37.5t95.5 -40t91 -49.5t76.5 -63t53 -83.5t19.5 -108q0 -141 -111.5 -233 t-293.5 -92q-77 0 -149 17t-119.5 41t-84.5 48t-54 41z" />
<glyph unicode="t" horiz-adv-x="791" d="M68 931v173h153v323h208v-323h270v-173h-270v-498q0 -64 17.5 -112t42.5 -73.5t59.5 -41.5t62 -20.5t56.5 -4.5q9 0 17.5 0.5t14.5 1.5t11 1.5t7 0.5l2 1v-190q-31 -5 -75 -5q-36 0 -70 3.5t-78 14.5t-81.5 29t-75.5 50t-64.5 74.5t-43 106t-16.5 140.5v522h-147z" />
<glyph unicode="u" horiz-adv-x="1321" d="M152 403v716h215v-668q0 -50 4.5 -88.5t18 -75.5t36.5 -61t61.5 -38.5t90.5 -14.5q83 0 152 34.5t114.5 93.5t70.5 135t25 159v524h215v-1119h-208v148q0 21 1 41.5t2 30.5l1 10h-4q-18 -44 -53.5 -87t-86.5 -82t-122 -63.5t-149 -24.5q-127 0 -211.5 45.5t-128.5 141.5 t-44 243z" />
<glyph unicode="v" horiz-adv-x="1110" d="M15 1119h228l272 -756q6 -17 12 -39.5t10 -41.5t7.5 -35.5t5.5 -26t3 -9.5h4q1 0 6.5 24t15 62.5t18.5 65.5l272 756h226l-414 -1119h-248z" />
<glyph unicode="w" horiz-adv-x="1800" d="M38 1119h228l232 -785q7 -25 14 -55t10 -47t4 -17h5q11 62 28 119l243 783h198l241 -783l31 -119h5q8 62 25 119l235 785h226l-361 -1119h-237l-232 719q-3 12 -7 25t-6.5 24.5t-5.5 22.5t-5 19.5t-3.5 15.5t-1.5 11l-1 3h-6q-13 -64 -30 -121l-230 -719h-238z" />
<glyph unicode="x" horiz-adv-x="1123" d="M49 0l380 575l-361 544h246l208 -340l37 -67h5q20 38 38 67l208 340h245l-361 -544l381 -575h-243l-235 374l-33 61h-5q-18 -34 -33 -61l-234 -374h-243z" />
<glyph unicode="y" horiz-adv-x="1127" d="M4 1119h241l281 -732q10 -26 20.5 -59.5t15.5 -54.5l6 -21h4q19 75 38 132l272 735h233l-524 -1320q-50 -127 -146.5 -195t-216.5 -68q-26 0 -52 3.5t-46.5 9.5t-40 13.5t-33.5 14.5t-24.5 13t-15.5 10l-5 4l75 164q2 -1 4.5 -3t10 -6.5t16 -9t20.5 -10t24.5 -9t27 -6.5 t28.5 -3q64 0 116.5 43.5t84.5 121.5l55 127z" />
<glyph unicode="z" horiz-adv-x="1142" d="M86 0v124l564 708q22 26 45 52t36 39l12 12v5q-35 -5 -108 -5h-525v184h922v-123l-563 -711q-13 -16 -27.5 -32.5t-26 -28l-21.5 -21.5t-15 -14l-5 -5v-5q38 5 111 5h568v-184h-967z" />
<glyph unicode="{" horiz-adv-x="773" d="M108 624v190q4 1 10.5 2t26 7t37.5 15.5t39.5 28.5t37.5 43.5t26.5 63.5t10.5 85v186q0 72 14.5 131.5t37.5 98.5t56 68.5t64.5 45.5t68.5 25.5t64 12.5t53 3l51 -2v-164h-30q-14 0 -28 -1.5t-33.5 -7t-36.5 -15t-34.5 -27.5t-29.5 -41.5t-20 -59.5t-8 -80v-228 q0 -35 -6 -67t-16.5 -56.5t-24 -46t-28.5 -37.5t-29.5 -28.5t-28 -21t-24 -14t-16.5 -7.5l-6 -2v-5q3 -1 9.5 -3.5t25.5 -12.5t35.5 -22.5t37.5 -36t36 -51t25 -68t10 -87.5v-254q0 -61 15 -106t35.5 -68.5t49 -37.5t49 -17.5t41.5 -3.5h30v-164q-19 -4 -51 -4q-26 0 -53 3 t-64 12.5t-68.5 26t-64.5 46t-56 69t-37.5 99t-14.5 132.5v211q0 37 -6.5 68t-17.5 53.5t-25 41.5t-29.5 31t-31 21.5t-29.5 14.5t-25 8t-18 3z" />
<glyph unicode="|" horiz-adv-x="625" d="M219 -352v2104h188v-2104h-188z" />
<glyph unicode="}" horiz-adv-x="773" d="M68 -49h31q15 0 28.5 2t33.5 7.5t36.5 15t34 27.5t30 41.5t20 59.5t7.5 80v254q0 64 18.5 116.5t45 81.5t53 49.5t44.5 26.5l19 7v5q-4 1 -10.5 3.5t-25 13.5t-35.5 24t-37.5 36.5t-35.5 51t-25.5 67.5t-10.5 84v228q0 61 -14.5 106t-35.5 68.5t-49.5 37.5t-49 17 t-41.5 3h-31v164q21 2 52 2q27 0 53.5 -3t63.5 -12.5t68.5 -25.5t64 -45.5t55.5 -68.5t37.5 -98.5t14.5 -131.5v-186q0 -46 10.5 -85t27 -64t36.5 -43.5t40 -28t37 -15.5t27 -7l10 -2v-190q-4 0 -10.5 -1t-26 -7.5t-37.5 -15.5t-39.5 -28t-37 -43t-26.5 -62.5t-11 -84.5 v-211q0 -57 -8.5 -106t-23.5 -85t-37 -66t-45 -50t-50.5 -35t-52.5 -23.5t-52.5 -14t-47.5 -7t-40 -1.5q-14 0 -27 1t-19 2l-6 1v164z" />
<glyph unicode="~" horiz-adv-x="1344" d="M148 451q0 127 38 211.5t106 123.5t166 39q47 0 87.5 -12t69 -31t54.5 -42t49 -46.5t46 -42.5t53 -31t63 -12q34 0 60.5 13t42.5 33.5t26.5 48.5t14.5 56t4 57h175q0 -189 -80.5 -281t-227.5 -92q-47 0 -87 11.5t-69 30.5t-55 42t-49 45.5t-46.5 41.5t-53.5 31t-64 12 q-41 0 -71 -19t-46 -50.5t-23.5 -65.5t-7.5 -71h-175z" />
<glyph unicode="&#xa2;" horiz-adv-x="1273" d="M118 781q0 161 55 294t162 220t249 107v186h157v-186q96 -15 177 -61t141 -117.5t98 -164.5l-195 -75q-29 65 -68 112.5t-97.5 77t-129.5 29.5q-103 0 -179 -56t-114 -151t-38 -215q0 -124 36.5 -218t112 -148t182.5 -54q103 0 177 59t118 160l195 -78 q-22 -51 -50.5 -96.5t-67 -87.5t-82.5 -74t-99.5 -54t-116.5 -28v-191h-157v191q-142 20 -249 107t-162 219.5t-55 292.5z" />
<glyph unicode="&#xa3;" horiz-adv-x="1306" d="M124 0v190h135v515h-97v156h97v300q0 91 36 170t99 135.5t152.5 89t192.5 32.5q62 0 123 -15t103.5 -35.5t76 -41.5t50.5 -35l16 -15l-126 -152q-5 4 -12.5 10.5t-33.5 22.5t-52.5 28.5t-65.5 23t-77 10.5q-120 0 -190.5 -67.5t-70.5 -169.5v-291h407v-156h-407v-515h719 v-190h-1075z" />
<glyph unicode="&#xa5;" horiz-adv-x="1342" d="M62 1562h250l260 -487q22 -46 46 -102.5t36 -90.5l13 -33h6q46 122 95 226l262 487h251l-367 -655h225v-139h-299l-59 -107v-81h358v-139h-358v-441h-222v441h-360v139h360v81l-59 107h-301v139h228z" />
<glyph unicode="&#xa7;" horiz-adv-x="977" d="M106 -25l97 149q4 -3 10.5 -8.5t29 -20t46 -25t59 -19.5t70.5 -9q103 0 168.5 60.5t65.5 171.5q0 43 -13 100l-145 831h173l156 -863q11 -59 11 -99q0 -168 -112.5 -274t-303.5 -106q-54 0 -106 11.5t-87.5 28t-63.5 33t-42 28.5zM139 1210q0 80 29 149.5t82 120 t132 79.5t175 29q54 0 105.5 -12t87.5 -28.5t64 -33t42 -27.5l13 -12l-101 -141q-4 3 -10.5 8t-28.5 18t-45 23t-58 18t-69 8q-104 0 -170 -57.5t-66 -165.5q0 -38 13 -89l151 -852h-177l-156 863q-13 50 -13 102z" />
<glyph unicode="&#xa8;" d="M279 1727v223h177v-223h-177zM648 1727v223h177v-223h-177z" />
<glyph unicode="&#xa9;" horiz-adv-x="1815" d="M120 780.5q0 165.5 62 315.5t167 257.5t250.5 171t305.5 63.5q162 0 309 -63.5t252.5 -171.5t168 -257.5t62.5 -315t-62.5 -315t-168 -257.5t-252.5 -171.5t-309 -63.5q-160 0 -305.5 63.5t-250.5 171.5t-167 257.5t-62 315zM281 781q0 -136 48.5 -258t131 -209.5 t198.5 -138.5t246 -51q131 0 248 51t200.5 138.5t132.5 209t49 258t-49 258.5t-132.5 209t-200.5 138t-248 51q-130 0 -246 -51t-198.5 -138t-131 -209t-48.5 -258zM485 779q0 87 31 167t86 141t138 97t180 36q41 0 79.5 -7.5t69 -20t58.5 -29t48.5 -34.5t38.5 -36t30 -34.5 t20.5 -29t12.5 -19.5l4 -8l-135 -73q-3 5 -9 14.5t-27 33.5t-44.5 42.5t-61 33.5t-77.5 15q-85 0 -148.5 -41t-95 -106t-31.5 -142q0 -80 30.5 -144.5t94 -105t150.5 -40.5q40 0 78 14.5t62.5 35t43 41t26.5 34.5l9 15l135 -74q-2 -4 -6.5 -12t-20.5 -31t-35 -43.5t-50 -46 t-65.5 -43.5t-83 -30.5t-100.5 -12.5q-78 0 -147.5 23.5t-121.5 65t-90 97t-57 121.5t-19 136z" />
<glyph unicode="&#xab;" horiz-adv-x="1229" d="M97 624l363 455h215l-363 -455l363 -453h-215zM542 624l363 455h214l-363 -455l363 -453h-214z" />
<glyph unicode="&#xad;" horiz-adv-x="1043" d="M199 536v190h646v-190h-646z" />
<glyph unicode="&#xae;" horiz-adv-x="1815" d="M120 780.5q0 165.5 62 315.5t167 257.5t250.5 171t305.5 63.5q162 0 309 -63.5t252.5 -171.5t168 -257.5t62.5 -315t-62.5 -315t-168 -257.5t-252.5 -171.5t-309 -63.5q-160 0 -305.5 63.5t-250.5 171.5t-167 257.5t-62 315zM281 781q0 -136 48.5 -258t131 -209.5 t198.5 -138.5t246 -51q131 0 248 51t200.5 138.5t132.5 209t49 258t-49 258.5t-132.5 209t-200.5 138t-248 51q-130 0 -246 -51t-198.5 -138t-131 -209t-48.5 -258zM635 367v834h321q118 0 190 -69.5t72 -184.5q0 -89 -46.5 -147.5t-105.5 -73.5v-5q10 -8 29 -46l159 -308 h-173l-154 323h-135v-323h-157zM792 805h132q62 0 98.5 38t36.5 104q0 64 -36 99t-99 35h-132v-276z" />
<glyph unicode="&#xb0;" horiz-adv-x="859" d="M95 1260q0 89 44.5 164t121.5 119.5t168 44.5t168.5 -44.5t123 -119.5t45.5 -164t-45.5 -164.5t-123 -119t-169 -43.5t-168 43.5t-121 119t-44.5 164.5zM266 1260q0 -68 46.5 -115.5t116.5 -47.5q45 0 83 22t59.5 59.5t21.5 81.5q0 69 -47.5 118t-116.5 49t-116 -49 t-47 -118z" />
<glyph unicode="&#xb4;" d="M356 1670l161 280h230l-211 -280h-180z" />
<glyph unicode="&#xb6;" horiz-adv-x="1304" d="M95 1049q0 85 26.5 164t75 141.5t113 109.5t143.5 72.5t164 25.5h601v-190h-433v-1482h-166v644q-106 0 -202.5 40t-167 108.5t-112.5 164t-42 202.5zM922 -110v1355h164v-1355h-164z" />
<glyph unicode="&#xb7;" horiz-adv-x="608" d="M194 528v228h220v-228h-220z" />
<glyph unicode="&#xb8;" d="M378 -314q44 -15 93 -15q46 0 76.5 16t30.5 52q0 33 -32.5 51t-85.5 18l-40 -2l65 245l108 -22v-18l-27 -121q46 -6 81.5 -25.5t57 -55t21.5 -81.5q0 -50 -19 -87t-52 -58t-72 -31t-83 -10q-32 0 -62.5 4t-44.5 7l-15 4v129z" />
<glyph unicode="&#xbb;" horiz-adv-x="1231" d="M110 171l363 453l-363 455h215l363 -455l-363 -453h-215zM557 171l363 453l-363 455h215l363 -455l-363 -453h-215z" />
<glyph unicode="&#x192;" horiz-adv-x="1258" d="M62 -46q84 -13 143 -13q29 0 56.5 4t62.5 19.5t62 41t48 72t26 108.5l51 588h-182v173h197l23 225q7 76 28.5 139t51 105t69.5 74t78.5 50t82.5 29.5t78 15t70 3.5t82.5 -4t74.5 -8l28 -4v-185q-111 15 -177 15q-30 0 -57.5 -4.5t-62 -20t-61 -40.5t-47 -71.5 t-26.5 -108.5l-20 -210h259v-173h-274l-53 -606q-7 -76 -29 -138.5t-51.5 -104.5t-69 -74t-78 -50t-82.5 -29t-77.5 -14t-68 -3t-73.5 3t-61 7l-21 3v186z" />
<glyph unicode="&#x2c6;" d="M245 1670l196 280h222l196 -280h-188l-118 177h-4l-116 -177h-188z" />
<glyph unicode="&#x2da;" horiz-adv-x="1105" d="M365 1807q0 75 55 120.5t133 45.5q76 0 132 -45.5t56 -120.5q0 -73 -56 -118t-132 -45q-78 0 -133 44.5t-55 118.5zM480 1807q0 -32 20 -52.5t53 -20.5q32 0 52.5 20.5t20.5 52.5q0 34 -20.5 56t-52.5 22q-33 0 -53 -21.5t-20 -56.5z" />
<glyph unicode="&#x2dc;" d="M179 1672q0 281 226 281q41 0 76 -15.5t59.5 -37.5t46 -44.5t46.5 -37.5t51 -15q31 0 51 23.5t27.5 54t7.5 65.5h154q0 -138 -56.5 -209.5t-168.5 -71.5q-41 0 -76 15.5t-59.5 37.5t-46.5 44.5t-46.5 37.5t-50.5 15q-31 0 -51.5 -23t-27.5 -53.5t-7 -66.5h-155z" />
<glyph unicode="&#x2000;" horiz-adv-x="986" />
<glyph unicode="&#x2001;" horiz-adv-x="1973" />
<glyph unicode="&#x2002;" horiz-adv-x="986" />
<glyph unicode="&#x2003;" horiz-adv-x="1973" />
<glyph unicode="&#x2004;" horiz-adv-x="657" />
<glyph unicode="&#x2005;" horiz-adv-x="493" />
<glyph unicode="&#x2006;" horiz-adv-x="328" />
<glyph unicode="&#x2007;" horiz-adv-x="328" />
<glyph unicode="&#x2008;" horiz-adv-x="246" />
<glyph unicode="&#x2009;" horiz-adv-x="394" />
<glyph unicode="&#x200a;" horiz-adv-x="109" />
<glyph unicode="&#x2010;" horiz-adv-x="1043" d="M199 536v190h646v-190h-646z" />
<glyph unicode="&#x2011;" horiz-adv-x="1043" d="M199 536v190h646v-190h-646z" />
<glyph unicode="&#x2012;" horiz-adv-x="1043" d="M199 536v190h646v-190h-646z" />
<glyph unicode="&#x2013;" horiz-adv-x="1560" d="M199 544v173h1164v-173h-1164z" />
<glyph unicode="&#x2014;" horiz-adv-x="2003" d="M199 544v173h1606v-173h-1606z" />
<glyph unicode="&#x2018;" horiz-adv-x="501" d="M108 1155l147 430h156l-95 -430h-208z" />
<glyph unicode="&#x2019;" horiz-adv-x="483" d="M112 1157l96 431h208l-144 -431h-160z" />
<glyph unicode="&#x201a;" horiz-adv-x="538" d="M93 -199l95 431h201l-144 -431h-152z" />
<glyph unicode="&#x201c;" horiz-adv-x="815" d="M108 1155l147 430h159l-95 -430h-211zM420 1155l146 430h160l-95 -430h-211z" />
<glyph unicode="&#x201d;" horiz-adv-x="795" d="M112 1157l96 431h210l-146 -431h-160zM424 1157l95 431h211l-144 -431h-162z" />
<glyph unicode="&#x201e;" horiz-adv-x="846" d="M93 -199l95 431h201l-144 -431h-152zM399 -199l95 431h203l-144 -431h-154z" />
<glyph unicode="&#x2020;" horiz-adv-x="933" d="M93 949v170h268v443h205v-443h274v-170h-274v-1059h-205v1059h-268z" />
<glyph unicode="&#x2021;" horiz-adv-x="1011" d="M133 378v173h268v398h-268v170h268v443h205v-443h274v-170h-274v-398h274v-173h-274v-488h-205v488h-268z" />
<glyph unicode="&#x2022;" horiz-adv-x="908" d="M112 643.5q0 93.5 46 172.5t125 124.5t173 45.5q92 0 170.5 -45.5t124 -124.5t45.5 -172q0 -70 -27 -133.5t-72.5 -109.5t-108.5 -73t-132 -27q-94 0 -173 46t-125 124.5t-46 172z" />
<glyph unicode="&#x2026;" horiz-adv-x="1702" d="M168 0v228h219v-228h-219zM741 0v228h221v-228h-221zM1317 0v228h218v-228h-218z" />
<glyph unicode="&#x202f;" horiz-adv-x="394" />
<glyph unicode="&#x2039;" horiz-adv-x="785" d="M97 624l363 455h215l-363 -455l363 -453h-215z" />
<glyph unicode="&#x203a;" horiz-adv-x="785" d="M110 171l363 453l-363 455h215l363 -455l-363 -453h-215z" />
<glyph unicode="&#x205f;" horiz-adv-x="493" />
<glyph unicode="&#x20ac;" horiz-adv-x="1306" d="M84 570v140h121q-9 88 0 159h-121v142h148q33 125 103 231.5t166.5 183t220 119.5t258.5 43q34 0 70 -3t62.5 -6.5t47.5 -7.5t32 -7l11 -2l-53 -201q-82 24 -175 24q-183 0 -319 -101.5t-192 -272.5h622l-29 -142h-624q-13 -73 -2 -159h597l-28 -140h-531 q51 -175 191 -282t324 -107q49 0 99.5 7.5t76.5 14.5l26 8l42 -200q-12 -4 -33.5 -10.5t-87 -17t-127.5 -10.5q-185 0 -342 76t-262 211t-146 310h-146z" />
<glyph unicode="&#x2122;" horiz-adv-x="2079" d="M51 1414v148h840v-148h-336v-825h-168v825h-336zM962 589l78 973h152l230 -509q5 -11 10 -25t9 -25.5t7 -21t4 -15.5l2 -6h4q13 53 28 93l230 509h156l74 -973h-165l-47 581v19.5t0.5 18.5t1 14.5t0.5 10.5l1 4h-5l-210 -469h-135l-210 469h-5q0 -2 0.5 -4.5t1 -10l1 -15 t0.5 -18t-1 -19.5l-46 -581h-166z" />
<glyph unicode="&#x25fc;" horiz-adv-x="1116" d="M0 0v1117h1117v-1117h-1117z" />
</font>
</defs>
</svg>
